Coordinates
version=1
nRows=19
nColumns=24
inDegrees=yes

Units are S.I. units (second, meters, Newtons, ...)
Angles are in degrees.

endheader
time	pelvis_tilt	pelvis_list	pelvis_rotation	pelvis_tx	pelvis_ty	pelvis_tz	hip_flexion_r	hip_adduction_r	hip_rotation_r	knee_angle_r	ankle_angle_r	subtalar_angle_r	mtp_angle_r	hip_flexion_l	hip_adduction_l	hip_rotation_l	knee_angle_l	ankle_angle_l	subtalar_angle_l	mtp_angle_l	lumbar_extension	lumbar_bending	lumbar_rotation
      6.34000000	      6.64646744	      5.24254999	     -7.23279071	      2.27957864	      0.74800419	     -0.26705262	     14.83203870	     -1.67076256	      7.60560582	    -67.92291424	     10.05525404	     -5.86632872	      0.00000000	     -0.27613598	      8.20777150	     -4.23799869	    -13.46437533	     11.24247787	    -19.72908882	      0.00000000	    -29.82717913	     -6.76069420	     -6.95146594
      6.35000000	      6.39100375	      4.73811142	     -6.58008340	      2.29135423	      0.74931526	     -0.26735901	     16.35947283	     -1.23684738	      6.47059333	    -66.49226525	     11.04653109	     -6.81214057	      0.00000000	     -1.44886711	      7.73193108	     -3.83125226	    -12.76734340	     11.55992612	    -19.41365162	      0.00000000	    -29.73786814	     -5.80768833	     -7.90720375
      6.36000000	      6.12343239	      4.26163170	     -5.95667936	      2.30298881	      0.75033780	     -0.26762521	     17.78406500	     -0.91076663	      5.34582653	    -64.67995831	     11.69857954	     -7.82743427	      0.00000000	     -2.59832978	      7.26605154	     -3.50646695	    -12.02665403	     11.87924543	    -19.10306587	      0.00000000	    -29.64522195	     -4.89469901	     -8.80282001
      6.37000000	      5.80313290	      3.95291453	     -5.32236924	      2.31447644	      0.75095917	     -0.26792282	     19.18380599	     -0.89732033	      4.16382422	    -62.54535259	     12.32526357	     -8.58468472	      0.00000000	     -3.63323501	      6.95594505	     -3.22930606	    -11.30694810	     12.11429681	    -18.82641830	      0.00000000	    -29.48970532	     -4.15862180	     -9.70989946
      6.38000000	      5.51160119	      3.68895553	     -4.75164331	      2.32586191	      0.75134392	     -0.26808639	     20.38906360	     -0.94850975	      3.10281728	    -59.99744510	     12.71160189	     -9.36282089	      0.00000000	     -4.70297123	      6.68158981	     -3.00974817	    -10.54428346	     12.36948869	    -18.57013473	      0.00000000	    -29.36635151	     -3.51787454	    -10.50507689
      6.39000000	      5.21716939	      3.57258349	     -4.19008160	      2.33715561	      0.75142199	     -0.26822605	     21.46060740	     -1.22639310	      2.08015050	    -57.08722345	     13.06561754	     -9.95317242	      0.00000000	     -5.72079054	      6.54578300	     -2.84559816	     -9.82686964	     12.54712378	    -18.29274170	      0.00000000	    -29.23698893	     -3.04228091	    -11.22795764
      6.40000000	      4.99805211	      3.49624661	     -3.69738896	      2.34842043	      0.75134773	     -0.26819298	     22.24260875	     -1.50576140	      1.26397396	    -53.72907133	     13.24416745	    -10.47531977	      0.00000000	     -6.83466215	      6.44308221	     -2.73311274	     -9.07732476	     12.76335692	    -17.99258372	      0.00000000	    -29.19172442	     -2.66398430	    -11.82752524
      6.41000000	      4.77990514	      3.54136257	     -3.19591570	      2.35966426	      0.75101271	     -0.26811723	     22.84278189	     -1.92794762	      0.55544841	    -49.98433964	     13.36747367	    -10.75167173	      0.00000000	     -7.90433188	      6.44662722	     -2.64168406	     -8.39793019	     12.94374618	    -17.66861469	      0.00000000	    -29.14888095	     -2.42200586	    -12.37098709
      6.42000000	      4.60612612	      3.65219500	     -2.71964262	      2.37095800	      0.75049765	     -0.26794226	     23.17054771	     -2.37229353	      0.07825142	    -45.81173691	     13.37466269	    -10.82443332	      0.00000000	     -9.01607021	      6.50423668	     -2.56371205	     -7.74320436	     13.11667275	    -17.30741147	      0.00000000	    -29.15245207	     -2.26950169	    -12.83181278
      6.43000000	      4.47239150	      3.82869665	     -2.25944059	      2.38231908	      0.74979960	     -0.26766243	     23.21928110	     -2.81853596	     -0.08599086	    -41.22405211	     13.22238422	    -10.70979591	      0.00000000	    -10.15457083	      6.61039982	     -2.49338017	     -7.13552851	     13.28712635	    -16.89827566	      0.00000000	    -29.20716616	     -2.20957807	    -13.21774913
      6.44000000	      4.35269217	      4.08942890	     -1.79475633	      2.39380829	      0.74887135	     -0.26731931	     23.01833878	     -3.30047334	      0.11078110	    -36.27264619	     12.89528875	    -10.46279073	      0.00000000	    -11.29031517	      6.78247123	     -2.41527866	     -6.58860290	     13.45444324	    -16.45075993	      0.00000000	    -29.27431197	     -2.24280394	    -13.55049981
      6.45000000	      4.26550781	      4.42847772	     -1.32876335	      2.40545752	      0.74772217	     -0.26689577	     22.54868317	     -3.81588607	      0.79436432	    -31.01531328	     12.33314022	    -10.22728609	      0.00000000	    -12.43668542	      7.00820659	     -2.32560667	     -6.12134995	     13.64353173	    -15.96773819	      0.00000000	    -29.37868504	     -2.36529914	    -13.86202650
      6.46000000	      4.11132687	      4.84277569	     -0.86081258	      2.41733435	      0.74623834	     -0.26636200	     21.88925174	     -4.33653556	      2.31696635	    -25.47872875	     11.25281701	    -10.72665561	      0.00000000	    -13.48001633	      7.27472600	     -2.29086082	     -5.75757841	     13.87633954	    -15.29396900	      0.00000000	    -29.37829386	     -2.57991084	    -14.16866362
      6.47000000	      4.02923634	      5.34462845	     -0.34014194	      2.42946805	      0.74454494	     -0.26584210	     20.97400491	     -5.06544590	      4.35509895	    -19.89325230	     10.13441551	    -11.30100267	      0.00000000	    -14.59497584	      7.59414593	     -2.00160732	     -5.47473804	     14.03887932	    -14.78859438	      0.00000000	    -29.45145619	     -2.85988113	    -14.51951802
      6.48000000	      3.97704905	      5.98902524	      0.20716129	      2.44187499	      0.74257166	     -0.26534496	     19.93606386	     -6.09507700	      7.00217816	    -14.47472751	      8.85028945	    -12.38682489	      0.00000000	    -15.72846620	      8.02458111	     -1.46675935	     -5.29655173	     14.17731536	    -14.44544891	      0.00000000	    -29.52679192	     -3.25529835	    -14.97824434
      6.49000000	      3.93027732	      6.73500231	      0.76536038	      2.45454530	      0.74032475	     -0.26484574	     19.00703310	     -7.43576153	      9.62515746	     -9.63418618	      7.82601574	    -13.32217778	      0.00000000	    -16.86142882	      8.51917019	     -0.64321113	     -5.21690455	     14.23243127	    -14.28543232	      0.00000000	    -29.58035416	     -3.74240770	    -15.48822038
      6.50000000	      3.83261608	      7.52044415	      1.34502632	      2.46741614	      0.73787958	     -0.26434076	     18.54762303	     -8.94157965	     10.87313057	     -5.91500275	      8.11831829	    -12.34056381	      0.00000000	    -17.83133722	      8.99830331	      0.18156140	     -5.39892548	     14.43999980	    -13.90353100	      0.00000000	    -29.55392175	     -4.25595648	    -16.06309915
      6.51000000	      3.88911132	      8.09894054	      1.91991189	      2.48052102	      0.73561917	     -0.26372019	     17.99494285	    -10.17152478	     11.70115280	     -2.87953975	      8.45588412	    -11.64311414	      0.00000000	    -19.00712657	      9.22543568	      1.66226748	     -5.57386129	     14.18569053	    -14.42201725	      0.00000000	    -29.67552632	     -4.52652565	    -16.50556245
      6.52000000	      3.93891339	      8.50007872	      2.48237378	      2.49378319	      0.73349437	     -0.26291713	     17.71863825	    -11.03900445	     11.15066652	     -0.88136940	      9.55994972	     -9.66720635	      0.00000000	    -19.98715761	      9.21836442	      2.96582989	     -6.08954744	     14.11632842	    -14.62473808	      0.00000000	    -29.75775697	     -4.62298573	    -16.89381576
